<svg xmlns="http://www.w3.org/2000/svg" width="51.5" height="50" viewBox="0 0 51.5 50"><path d="M9.12,0H42.38A9.093,9.093,0,0,1,51.5,9.081V40.919A9.093,9.093,0,0,1,42.38,50H9.12A9.093,9.093,0,0,1,0,40.919V9.081A9.093,9.093,0,0,1,9.12,0Z" fill="#470137"/><g transform="translate(7.502 10.913)"><path d="M54.539,60.322,48.1,70.944l6.867,11.266a.369.369,0,0,1,.043.257c-.021.086-.107.021-.236.043H49.861c-.343,0-.579-.021-.73-.236-.451-.9-.923-1.781-1.373-2.682-.451-.88-.944-1.781-1.459-2.7s-1.03-1.845-1.545-2.79h-.043c-.451.923-.944,1.845-1.438,2.768s-.987,1.845-1.459,2.747c-.494.9-.987,1.824-1.481,2.7-.086.215-.257.236-.494.236H35.119c-.086,0-.15.043-.15-.064a.3.3,0,0,1,.043-.236l6.674-10.944L35.184,60.3c-.064-.086-.086-.172-.043-.215A.249.249,0,0,1,35.355,60h4.871a1.266,1.266,0,0,1,.3.043.609.609,0,0,1,.215.193c.408.923.88,1.845,1.373,2.768.515.923,1.009,1.824,1.545,2.725.515.9.987,1.8,1.438,2.725h.043c.451-.944.923-1.867,1.395-2.768s.966-1.8,1.459-2.7.966-1.824,1.438-2.7a.365.365,0,0,1,.129-.215.409.409,0,0,1,.279-.043h4.528a.2.2,0,0,1,.236.15c.021.021-.021.107-.064.15Z" transform="translate(-34.961 -58.13)" fill="#ff61f6"/><path d="M139.331,76.115a10.668,10.668,0,0,1-4.614-.966,7.481,7.481,0,0,1-3.24-2.918,9.285,9.285,0,0,1-1.18-4.893,8.813,8.813,0,0,1,1.18-4.528,8.911,8.911,0,0,1,3.412-3.326,10.976,10.976,0,0,1,5.429-1.245,3.832,3.832,0,0,1,.451.021c.193.021.408.021.665.043V51.524c0-.15.064-.236.215-.236H146a.192.192,0,0,1,.215.15V71.909c0,.386.021.815.043,1.288.043.451.064.88.086,1.245a.348.348,0,0,1-.215.343,16.389,16.389,0,0,1-3.5,1.03A18.928,18.928,0,0,1,139.331,76.115Zm2.1-4.292V62.382a5.487,5.487,0,0,0-.579-.107c-.236-.021-.472-.043-.708-.043a5.29,5.29,0,0,0-2.425.558,4.811,4.811,0,0,0-1.824,1.588,4.757,4.757,0,0,0-.708,2.725,5.98,5.98,0,0,0,.365,2.21,4.194,4.194,0,0,0,.966,1.524,3.707,3.707,0,0,0,1.459.858,5.617,5.617,0,0,0,1.781.279c.322,0,.622-.021.9-.043A1.877,1.877,0,0,0,141.434,71.823Z" transform="translate(-109.839 -51.284)" fill="#ff61f6"/></g></svg>