<svg xmlns="http://www.w3.org/2000/svg" width="51.282" height="50" viewBox="0 0 51.282 50"><path d="M9.081,0H42.2a9.074,9.074,0,0,1,9.081,9.081V40.919A9.074,9.074,0,0,1,42.2,50H9.081A9.074,9.074,0,0,1,0,40.919V9.081A9.074,9.074,0,0,1,9.081,0Z" fill="#00005b"/><g transform="translate(6.344 12.863)"><path d="M43.945,77.251H36l-1.624,5.043a.374.374,0,0,1-.406.3H29.949c-.235,0-.3-.128-.235-.385l6.88-19.722c.064-.214.128-.406.214-.662a7.463,7.463,0,0,0,.128-1.389.212.212,0,0,1,.171-.235h5.534c.15,0,.256.064.278.171l7.8,21.9c.064.235,0,.342-.214.342H46.039a.323.323,0,0,1-.342-.235ZM37.235,73h5.427c-.128-.449-.3-.983-.491-1.538-.192-.577-.385-1.2-.577-1.838-.214-.662-.406-1.3-.62-1.966s-.406-1.282-.577-1.9c-.171-.6-.321-1.154-.47-1.667h-.043a26.237,26.237,0,0,1-.726,2.756c-.321,1.026-.641,2.094-.983,3.162C37.9,71.1,37.556,72.1,37.235,73Z" transform="translate(-29.69 -60.2)" fill="#99f"/><path d="M144.7,94.073h-6.774a4.708,4.708,0,0,0,.662,1.9,3.388,3.388,0,0,0,1.56,1.282,6.646,6.646,0,0,0,2.735.534,12.852,12.852,0,0,0,2.222-.235,8.024,8.024,0,0,0,1.9-.491c.107-.085.171-.043.171.171V100.5a1.073,1.073,0,0,1-.043.256.5.5,0,0,1-.15.15,9.141,9.141,0,0,1-2.137.641,14.434,14.434,0,0,1-3.034.256,10.126,10.126,0,0,1-4.1-.748,7.2,7.2,0,0,1-2.692-2.03,7.841,7.841,0,0,1-1.474-2.8,11.07,11.07,0,0,1,.085-6.517,8.72,8.72,0,0,1,1.6-2.927,7.744,7.744,0,0,1,2.585-2.03,8.07,8.07,0,0,1,3.568-.662,7.719,7.719,0,0,1,3.312.662,5.885,5.885,0,0,1,2.244,1.709,7.822,7.822,0,0,1,1.282,2.436,8.4,8.4,0,0,1,.406,2.607c0,.513-.021.962-.043,1.368-.043.406-.064.705-.085.9a.319.319,0,0,1-.3.278c-.128,0-.363.021-.705.043a10.114,10.114,0,0,1-1.239.064C145.771,94.159,145.258,94.073,144.7,94.073Zm-6.774-3.12h4.509c.556,0,.962,0,1.218-.021a1.045,1.045,0,0,0,.491-.171v-.214a2.452,2.452,0,0,0-.128-.791,2.828,2.828,0,0,0-2.778-1.966,3.009,3.009,0,0,0-2.842,1.624A4.429,4.429,0,0,0,137.929,90.954Z" transform="translate(-111.004 -78.988)" fill="#99f"/></g></svg>