<svg xmlns="http://www.w3.org/2000/svg" width="61.552" height="50" viewBox="0 0 61.552 50"><g transform="translate(-11.151 -4.932)"><g transform="translate(11.151 4.932)"><g transform="translate(0)"><g transform="translate(24.18 13.775)"><path d="M5259.79-7348.681a14.162,14.162,0,0,1,5.139-10.025,17.115,17.115,0,0,1,11.058-3.954,17.121,17.121,0,0,1,11.055,3.954,14.174,14.174,0,0,1,5.14,10.021,13.92,13.92,0,0,1-4.327,10.761,16.943,16.943,0,0,1-11.868,4.687,16.954,16.954,0,0,1-11.874-4.687A13.9,13.9,0,0,1,5259.79-7348.681Z" transform="translate(-5259.769 7362.66)" fill="#fff"/></g><g transform="translate(32.076 20.94)"><path d="M2698.829-3770.652a7.268,7.268,0,0,1,2.637-5.144,8.78,8.78,0,0,1,5.674-2.029,8.782,8.782,0,0,1,5.672,2.029,7.273,7.273,0,0,1,2.637,5.142,7.141,7.141,0,0,1-2.22,5.521,8.693,8.693,0,0,1-6.09,2.4,8.7,8.7,0,0,1-6.093-2.4A7.131,7.131,0,0,1,2698.829-3770.652Z" transform="translate(-2698.818 3777.825)" fill="#265787"/></g><g transform="translate(0)"><path d="M2389.693-3959.677a15.2,15.2,0,0,0,.654,3.584,18.913,18.913,0,0,0,4.084,7.072,21.1,21.1,0,0,0,7.148,5.133,22.962,22.962,0,0,0,9.385,1.95,23,23,0,0,0,9.38-1.982,21.257,21.257,0,0,0,7.143-5.154,19.065,19.065,0,0,0,4.083-7.085,17.917,17.917,0,0,0,.768-3.955,18.04,18.04,0,0,0-.127-3.928,18.259,18.259,0,0,0-2.6-7.127,19.88,19.88,0,0,0-4.751-5.238l0,0-19.228-14.764c-.017-.013-.031-.027-.05-.039a4.275,4.275,0,0,0-4.77.006,2.166,2.166,0,0,0-.315,3.628l-.006.005,8.02,6.522-24.444.026h-.033a4.457,4.457,0,0,0-4.347,3c-.4,1.707.977,3.122,3.078,3.13l0,.008,12.389-.024-22.108,16.97c-.028.021-.059.042-.085.063-2.085,1.6-2.76,4.253-1.446,5.933,1.333,1.709,4.167,1.712,6.275.01l12.066-9.875A18.889,18.889,0,0,0,2389.693-3959.677Zm31.005,4.464a13.587,13.587,0,0,1-9.733,3.977,13.524,13.524,0,0,1-9.738-3.946,11.581,11.581,0,0,1-2.657-4.16,10.8,10.8,0,0,1-.61-4.649,10.978,10.978,0,0,1,1.332-4.376,12.062,12.062,0,0,1,2.957-3.517,13.787,13.787,0,0,1,8.711-3.04,13.758,13.758,0,0,1,8.715,3.015,12.019,12.019,0,0,1,2.954,3.506,10.986,10.986,0,0,1,1.337,4.374,10.827,10.827,0,0,1-.612,4.646A11.634,11.634,0,0,1,2420.7-3955.213Z" transform="translate(-2370.84 3991.939)" fill="#ea7600"/></g></g></g></g></svg>