<svg xmlns="http://www.w3.org/2000/svg" width="35.423" height="50" viewBox="0 0 35.423 50"><g transform="translate(-193.633 -276.362)"><g transform="translate(193.633 276.362)"><path d="M110.056,100.62l-3.227,36.152-14.506,4.022-14.466-4.016L74.633,100.62Z" transform="translate(-74.633 -90.794)" fill="#264de4"/><path d="M267.722,161.788l2.758-30.894H256v34.143Z" transform="translate(-238.288 -118.111)" fill="#2965f1"/><path d="M150.31,268.217l.4,4.435h9.924v-4.435Z" transform="translate(-142.92 -242.024)" fill="#ebebeb"/><path d="M153.252,176.3h-11.12l.4,4.435h10.717Z" transform="translate(-135.54 -159.088)" fill="#ebebeb"/><path d="M166.135,345.812V341.2l-.019.005-4.939-1.334-.316-3.537h-4.452l.621,6.963,9.084,2.522Z" transform="translate(-148.423 -303.488)" fill="#ebebeb"/><path d="M160,0h5.371V2.246h-3.125V4.492h3.125V6.738H160Z" transform="translate(-151.663)"/><path d="M226,0h5.371V1.953h-3.125v.391h3.125V6.836H226V4.785h3.125V4.395H226Z" transform="translate(-211.218)"/><path d="M292,0h5.371V1.953h-3.125v.391h3.125V6.836H292V4.785h3.125V4.395H292Z" transform="translate(-270.773)"/><path d="M261.3,189.715l-.515,5.751-4.946,1.335v4.614l9.091-2.52.067-.749,1.042-11.675.108-1.191.8-8.976H255.843v4.435h6.249l-.4,4.541h-5.845v4.435Z" transform="translate(-238.147 -159.088)" fill="#fff"/></g></g></svg>