<svg xmlns="http://www.w3.org/2000/svg" width="163" height="163" viewBox="0 0 163 163"><g transform="translate(-441 -1259)"><circle cx="81.5" cy="81.5" r="81.5" transform="translate(441 1259)" fill="#acf2d8"/><g transform="translate(472.27 1290)"><path d="M21.786,162.2a5.118,5.118,0,0,0,5.114,5.114h78.842a5.118,5.118,0,0,0,5.114-5.114V97.616H21.786Z" transform="translate(-16.226 -72.705)" fill="#fff"/><path d="M43.572,119.467v5.164H52.58a2.788,2.788,0,1,1,0,5.576H43.572v3.811h4.322a2.788,2.788,0,1,1,0,5.576H43.572v38.456H121.49V119.483H43.572Z" transform="translate(-32.453 -88.979)" fill="#f05d7b"/><path d="M89.5,0H10.674A10.691,10.691,0,0,0,0,10.674V89.515a10.691,10.691,0,0,0,10.674,10.674H89.515a10.691,10.691,0,0,0,10.674-10.674V10.674A10.705,10.705,0,0,0,89.5,0Zm5.114,89.5A5.118,5.118,0,0,1,89.5,94.613H10.674A5.118,5.118,0,0,1,5.56,89.5V24.911H94.613V89.5Zm0-70.148H5.56V10.674A5.118,5.118,0,0,1,10.674,5.56H89.515a5.118,5.118,0,0,1,5.114,5.114v8.678Z" fill="#194f82"/><path d="M110.839,26.9a5.118,5.118,0,0,0-5.114-5.114H26.9A5.118,5.118,0,0,0,21.786,26.9v8.678H110.84V26.9Z" transform="translate(-16.226 -16.226)" fill="#f05d7b"/><path d="M89.5,0H10.674A10.691,10.691,0,0,0,0,10.674V89.515a10.691,10.691,0,0,0,10.674,10.674H89.515a10.691,10.691,0,0,0,10.674-10.674V10.674A10.705,10.705,0,0,0,89.5,0Zm5.114,89.5A5.118,5.118,0,0,1,89.5,94.613H10.674A5.118,5.118,0,0,1,5.56,89.5V24.911H94.613V89.5ZM5.56,10.674A5.118,5.118,0,0,1,10.674,5.56H89.515a5.118,5.118,0,0,1,5.114,5.114v8.678H5.56Z" fill="#022d5e"/><path d="M306.867,37.947h-7.028a2.788,2.788,0,1,0,0,5.576h7.028a2.788,2.788,0,1,0,0-5.576Z" transform="translate(-221.245 -28.263)" fill="#022d5e"/><path d="M96.113,37.947H48.881a2.788,2.788,0,0,0,0,5.576H96.13a2.788,2.788,0,1,0-.016-5.576Z" transform="translate(-34.33 -28.263)" fill="#022d5e"/><path d="M83,192.416,95.13,204.542a2.788,2.788,0,1,0,3.943-3.943L88.894,190.42l10.179-10.179a2.788,2.788,0,0,0,0-3.943h0a2.788,2.788,0,0,0-3.943,0L83,188.423A2.9,2.9,0,0,0,83,192.416Z" transform="translate(-61.227 -130.699)" fill="#022d5e"/><path d="M257.871,188.636l-12.142-12.142a2.788,2.788,0,0,0-3.943,0h0a2.788,2.788,0,0,0,0,3.943l10.179,10.179-10.179,10.179a2.788,2.788,0,1,0,3.943,3.943l12.126-12.126A2.828,2.828,0,0,0,257.871,188.636Z" transform="translate(-179.474 -130.845)" fill="#022d5e"/><path d="M164.408,187.781a2.8,2.8,0,0,0,3.415-1.947l11.746-42.679a2.782,2.782,0,1,0-5.362-1.485l-11.746,42.679A2.771,2.771,0,0,0,164.408,187.781Z" transform="translate(-120.921 -103.99)" fill="#022d5e"/></g></g></svg>