<svg xmlns="http://www.w3.org/2000/svg" width="50.002" height="50" viewBox="0 0 50.002 50"><g transform="translate(0 -0.089)"><path d="M49.059,22.862,27.227,1.033a3.219,3.219,0,0,0-4.553,0L18.14,5.566l5.75,5.75a3.824,3.824,0,0,1,4.843,4.875l5.542,5.542a3.827,3.827,0,1,1-2.3,2.16l-5.169-5.169v13.6a3.824,3.824,0,1,1-3.15-.111V18.488a3.781,3.781,0,0,1-1.255-.836,3.83,3.83,0,0,1-.825-4.189l-5.669-5.67L.943,22.762a3.221,3.221,0,0,0,0,4.555l21.831,21.83a3.22,3.22,0,0,0,4.554,0L49.059,27.42a3.222,3.222,0,0,0,0-4.555" fill="#f05133"/></g></svg>