<svg xmlns="http://www.w3.org/2000/svg" width="35.43" height="50" viewBox="0 0 35.43 50"><g transform="translate(-74.6)"><path d="M108.4,0h2.246V2.227h2.07V0h2.246V6.738h-2.246V4.492h-2.051V6.738H108.4m9.531-4.492h-1.982V0h6.221V2.246h-1.992V6.738h-2.246M123.156,0h2.354l1.445,2.373L128.4,0h2.354V6.738h-2.246V3.4L126.935,5.82,125.363,3.4v3.34h-2.207M131.867,0h2.246V4.512H137.3V6.738h-5.43" transform="translate(-30.499)"/><path d="M77.823,136.772,74.6,100.6h35.43l-3.223,36.152-14.521,4.023" transform="translate(0 -90.776)" fill="#e44d26"/><path d="M256,165.131V131h14.482l-2.764,30.859" transform="translate(-163.685 -118.207)" fill="#f16529"/><path d="M142,176.3h11.133v4.434h-6.27l.41,4.541h5.859V189.7h-9.922m.2,2.227h4.453l.313,3.545,4.961,1.328v4.629l-9.1-2.539" transform="translate(-60.818 -159.083)" fill="#ebebeb"/><path d="M266.913,176.3H255.8v4.434h10.7m-.4,4.541H255.8v4.434h5.469l-.518,5.762L255.8,196.8v4.609l9.082-2.52" transform="translate(-163.505 -159.083)" fill="#fff"/></g></svg>