<svg xmlns="http://www.w3.org/2000/svg" width="51.282" height="50" viewBox="0 0 51.282 50"><path d="M9.081,0H42.2a9.074,9.074,0,0,1,9.081,9.081V40.919A9.074,9.074,0,0,1,42.2,50H9.081A9.074,9.074,0,0,1,0,40.919V9.081A9.074,9.074,0,0,1,9.081,0Z" fill="#300"/><g transform="translate(10.596 11.09)"><path d="M63.845,77.1H55.9l-1.624,5.021a.374.374,0,0,1-.406.3H49.849c-.235,0-.3-.128-.235-.385l6.88-19.808c.064-.214.128-.449.214-.705a7.463,7.463,0,0,0,.128-1.389.212.212,0,0,1,.171-.235h5.534c.171,0,.256.064.278.171l7.8,22.009c.064.235,0,.342-.214.342H65.939a.323.323,0,0,1-.342-.235Zm-6.709-4.338h5.427c-.128-.449-.3-.983-.491-1.538-.192-.577-.385-1.2-.577-1.838-.214-.662-.406-1.3-.62-1.966s-.406-1.282-.577-1.9c-.171-.6-.321-1.154-.47-1.667h-.043a26.235,26.235,0,0,1-.727,2.756c-.321,1.026-.641,2.094-.983,3.162-.3,1.09-.62,2.094-.94,2.991Z" transform="translate(-49.59 -58.191)" fill="#ff9a00"/><path d="M160.124,57.263a2.644,2.644,0,0,1-1.9-.748,2.776,2.776,0,0,1-.727-1.966,2.514,2.514,0,0,1,.769-1.9,2.736,2.736,0,0,1,1.9-.748,2.559,2.559,0,0,1,1.944.748,2.938,2.938,0,0,1-.043,3.868A2.513,2.513,0,0,1,160.124,57.263ZM157.731,75.81V59.357c0-.214.085-.3.278-.3h4.231c.192,0,.278.107.278.3V75.81c0,.235-.085.342-.278.342h-4.188A.3.3,0,0,1,157.731,75.81Z" transform="translate(-134.438 -51.9)" fill="#ff9a00"/></g></svg>