<svg xmlns="http://www.w3.org/2000/svg" width="163" height="163" viewBox="0 0 163 163"><g transform="translate(-441 -1017)"><circle cx="81.5" cy="81.5" r="81.5" transform="translate(441 1017)" fill="#acf2d8"/><g transform="translate(478.426 1048)"><path d="M21.786,227a2.464,2.464,0,0,0,2.458,2.458H87.463A2.464,2.464,0,0,0,89.921,227v-37.07a2.464,2.464,0,0,0-2.458-2.458H24.277a2.464,2.464,0,0,0-2.458,2.458" transform="translate(-16.226 -144.417)" fill="#fff"/><rect width="57.032" height="30.9" transform="translate(11.119 48.618)" fill="#f05d7b"/><path d="M310.691,236.043l15.326,7.028v-27.8l-15.326,7.044Z" transform="translate(-231.404 -165.121)" fill="#f05d7b"/><path d="M96.23,171.384l-16.943,7.77v-5.543a8.062,8.062,0,0,0-8.051-8.051H8.051A8.062,8.062,0,0,0,0,173.611v37.07a8.062,8.062,0,0,0,8.051,8.051H71.269a8.062,8.062,0,0,0,8.051-8.051v-5.56l16.943,7.77a2.784,2.784,0,0,0,3.943-2.524V173.908A2.817,2.817,0,0,0,96.23,171.384Zm-1.617,34.661-15.326-7.028V185.291l15.326-7.044Zm-20.886,4.636a2.464,2.464,0,0,1-2.458,2.458H8.051a2.464,2.464,0,0,1-2.458-2.458v-10.2h5.56a2.788,2.788,0,1,0,0-5.576H5.56v-5.56H16.7a2.784,2.784,0,0,0,2.788-2.788,2.746,2.746,0,0,0-2.788-2.755H5.56v-10.2a2.464,2.464,0,0,1,2.458-2.458H71.236a2.464,2.464,0,0,1,2.458,2.458v37.07h.033Z" transform="translate(0 -128.094)" fill="#022d5e"/><path d="M58.941,51.288a10.69,10.69,0,1,0-10.69,10.69A10.7,10.7,0,0,0,58.941,51.288Z" transform="translate(-27.975 -35.022)" fill="#f05d7b"/><path d="M210.86,51.288a10.69,10.69,0,1,0-10.69,10.69A10.7,10.7,0,0,0,210.86,51.288Z" transform="translate(-141.125 -35.022)" fill="#fff"/><g transform="translate(3.976 0)"><path d="M31.846,18.748A16.266,16.266,0,1,0,48.113,35.014,16.278,16.278,0,0,0,31.846,18.748ZM21.173,35.014A10.69,10.69,0,1,1,31.863,45.7,10.7,10.7,0,0,1,21.173,35.014Z" transform="translate(-15.58 -18.748)" fill="#022d5e"/><path d="M183.9,18.748a16.266,16.266,0,1,0,16.266,16.266A16.278,16.278,0,0,0,183.9,18.748ZM173.188,35.014a10.69,10.69,0,1,1,10.69,10.69A10.7,10.7,0,0,1,173.188,35.014Z" transform="translate(-128.827 -18.748)" fill="#022d5e"/></g></g></g></svg>