<svg xmlns="http://www.w3.org/2000/svg" xmlns:xlink="http://www.w3.org/1999/xlink" width="129.822" height="50" viewBox="0 0 129.822 50"><defs><clipPath id="a"><path d="M207.465,226.125,195.1,233.261a1.492,1.492,0,0,0-.747,1.293v14.283a1.492,1.492,0,0,0,.747,1.293l12.365,7.142a1.5,1.5,0,0,0,1.494,0l12.363-7.142a1.5,1.5,0,0,0,.745-1.293V234.554a1.492,1.492,0,0,0-.748-1.293l-12.361-7.136a1.5,1.5,0,0,0-1.5,0" transform="translate(-194.354 -225.925)"/></clipPath><linearGradient id="b" x1="-0.847" y1="-1.034" x2="-0.838" y2="-1.034" gradientUnits="objectBoundingBox"><stop offset="0.3" stop-color="#3e863d"/><stop offset="0.5" stop-color="#55934f"/><stop offset="0.8" stop-color="#5aad45"/></linearGradient><clipPath id="c"><path d="M195.4,249.845a1.5,1.5,0,0,0,.44.386l10.606,6.126,1.767,1.015a1.5,1.5,0,0,0,.861.2,1.527,1.527,0,0,0,.293-.054l13.04-23.877a1.479,1.479,0,0,0-.347-.276l-8.1-4.675-4.279-2.462a1.563,1.563,0,0,0-.387-.156Zm0,0" transform="translate(-195.398 -226.069)"/></clipPath><linearGradient id="d" x1="-0.742" y1="-0.932" x2="-0.737" y2="-0.932" gradientUnits="objectBoundingBox"><stop offset="0.57" stop-color="#3e863d"/><stop offset="0.72" stop-color="#619857"/><stop offset="1" stop-color="#76ac64"/></linearGradient><clipPath id="e"><path d="M209.947,225.94a1.508,1.508,0,0,0-.6.191l-12.329,7.116,13.294,24.214a1.483,1.483,0,0,0,.531-.183l12.364-7.142a1.5,1.5,0,0,0,.722-1.02L210.38,225.964a1.551,1.551,0,0,0-.3-.03c-.041,0-.082,0-.123.006" transform="translate(-197.021 -225.934)"/></clipPath><linearGradient id="f" x1="-2.148" y1="-2.103" x2="-2.138" y2="-2.103" gradientUnits="objectBoundingBox"><stop offset="0.16" stop-color="#6bbf47"/><stop offset="0.38" stop-color="#79b461"/><stop offset="0.47" stop-color="#75ac64"/><stop offset="0.7" stop-color="#659e5a"/><stop offset="0.9" stop-color="#3e863d"/></linearGradient></defs><g transform="translate(0 0)"><path d="M27.861,26.574a1.5,1.5,0,0,0-.751-1.3L14.68,18.118a1.451,1.451,0,0,0-.683-.2h-.129a1.477,1.477,0,0,0-.687.2L.752,25.269A1.513,1.513,0,0,0,0,26.575L.027,45.839a.739.739,0,0,0,.373.649.71.71,0,0,0,.745,0l7.39-4.232a1.516,1.516,0,0,0,.751-1.3v-9a1.5,1.5,0,0,1,.75-1.3l3.146-1.812a1.493,1.493,0,0,1,.751-.2,1.466,1.466,0,0,1,.747.2l3.145,1.811a1.5,1.5,0,0,1,.751,1.3v9a1.521,1.521,0,0,0,.753,1.3l7.385,4.229a.734.734,0,0,0,.751,0,.754.754,0,0,0,.372-.649ZM86.516,36.6a.373.373,0,0,1-.188.325l-4.269,2.461a.376.376,0,0,1-.375,0l-4.27-2.461a.372.372,0,0,1-.188-.325V31.674a.378.378,0,0,1,.185-.326l4.267-2.465a.379.379,0,0,1,.379,0l4.27,2.465a.374.374,0,0,1,.188.326ZM87.669.1a.751.751,0,0,0-1.117.656V19.827a.525.525,0,0,1-.788.455l-3.114-1.793a1.5,1.5,0,0,0-1.5,0L68.717,25.665a1.5,1.5,0,0,0-.751,1.3V41.319a1.5,1.5,0,0,0,.751,1.3L81.151,49.8a1.508,1.508,0,0,0,1.5,0l12.434-7.184a1.5,1.5,0,0,0,.751-1.3V5.536a1.5,1.5,0,0,0-.772-1.312Zm41.407,31.449a1.5,1.5,0,0,0,.746-1.3V26.768a1.5,1.5,0,0,0-.747-1.3L116.72,18.3a1.5,1.5,0,0,0-1.505,0l-12.431,7.175a1.5,1.5,0,0,0-.751,1.3V41.123a1.507,1.507,0,0,0,.757,1.306l12.352,7.04a1.5,1.5,0,0,0,1.473.009l7.472-4.153a.75.75,0,0,0,.006-1.306l-12.508-7.178a.745.745,0,0,1-.379-.649v-4.5a.745.745,0,0,1,.376-.65l3.891-2.245a.742.742,0,0,1,.748,0l3.894,2.245a.748.748,0,0,1,.376.649v3.539a.749.749,0,0,0,1.127.649Zm0,0" transform="translate(0 0)" fill="#333" fill-rule="evenodd"/><path d="M388.444,105.106a.285.285,0,0,1,.288,0l2.386,1.376a.288.288,0,0,1,.144.249v2.756a.288.288,0,0,1-.144.249l-2.386,1.376a.285.285,0,0,1-.288,0l-2.385-1.376a.287.287,0,0,1-.147-.249v-2.756a.284.284,0,0,1,.144-.249Zm0,0" transform="translate(-272.659 -74.233)" fill="#689f63" fill-rule="evenodd"/><g transform="translate(34.057 18.169)" clip-path="url(#a)"><path d="M204.481,205.68,169.642,188.6l-17.863,36.441,34.838,17.078Zm0,0" transform="translate(-164.273 -199.556)" fill="url(#b)"/></g><g transform="translate(34.363 18.211)" clip-path="url(#c)"><path d="M144.07,206.137l24.6,33.3L201.2,215.4,176.6,182.1Zm0,0" transform="translate(-159.133 -195.004)" fill="url(#d)"/></g><g transform="translate(34.839 18.171)" clip-path="url(#e)"><path d="M197.02,225.934v31.527h26.906V225.934Zm0,0" transform="translate(-197.02 -225.934)" fill="url(#f)"/></g></g></svg>