<svg xmlns="http://www.w3.org/2000/svg" width="66.152" height="50" viewBox="0 0 66.152 50"><g transform="translate(-0.596 -1)"><path d="M20.89,49.24l-.147-.293a2.788,2.788,0,0,1-.147-1.906H4.761L28.221,5.4l9.824,17.742,3.226-2.346L31.447,3.053A4.065,4.065,0,0,0,28.221,1,3.534,3.534,0,0,0,25,3.2L1.242,45.282C1.1,45.721.069,47.628.949,49.24A3.754,3.754,0,0,0,4.468,51H24.409C22.356,51,21.33,50.12,20.89,49.24Z" transform="translate(0)" fill="#00c58e"/><path d="M284.006,91.51,264.944,57.2c-.293-.293-1.32-2.2-3.226-2.2a3.816,3.816,0,0,0-3.226,2.2L256,61.3v7.918l5.718-9.824,18.915,33.724h-7.185a3.372,3.372,0,0,1-.293,2.053l-.147.147c-.88,1.613-3.079,1.76-3.372,1.76H280.78a4.371,4.371,0,0,0,3.519-1.76A3.633,3.633,0,0,0,284.006,91.51Z" transform="translate(-217.955 -46.082)" fill="#108775"/><path d="M169.976,132.018v-.147l.147-.293a3.61,3.61,0,0,0,.147-1.76l-.587-1.76-14.956-26.1L152.527,98h-.147l-2.2,3.959-14.956,26.1-.587,1.76a3.519,3.519,0,0,0,.293,2.2,3.753,3.753,0,0,0,3.519,1.76H166.31A4.6,4.6,0,0,0,169.976,132.018Zm-17.6-26.1,13.636,23.9H138.744Z" transform="translate(-114.335 -82.777)" fill="#2f495e"/></g></svg>