<svg xmlns="http://www.w3.org/2000/svg" width="51.282" height="50" viewBox="0 0 51.282 50"><path d="M9.081,0H42.2a9.074,9.074,0,0,1,9.081,9.081V40.919A9.074,9.074,0,0,1,42.2,50H9.081A9.074,9.074,0,0,1,0,40.919V9.081A9.074,9.074,0,0,1,9.081,0Z" fill="#001e36"/><g transform="translate(11.538 12.714)"><path d="M54,81.85V59.863c0-.15.064-.235.214-.235.363,0,.705,0,1.2-.021.513-.021,1.047-.021,1.624-.043s1.2-.021,1.859-.043,1.3-.021,1.944-.021a12.564,12.564,0,0,1,4.4.662A7.63,7.63,0,0,1,68.1,61.915a6.8,6.8,0,0,1,1.56,2.436,8.178,8.178,0,0,1,.491,2.778,7.639,7.639,0,0,1-1.282,4.551,7.321,7.321,0,0,1-3.44,2.607,13.848,13.848,0,0,1-4.808.726c-.513,0-.855,0-1.068-.021s-.513-.021-.919-.021v6.859a.266.266,0,0,1-.235.3H54.256C54.085,82.128,54,82.043,54,81.85Zm4.658-18.1v7.179c.3.021.577.043.833.043h1.132a7.981,7.981,0,0,0,2.457-.385,3.675,3.675,0,0,0,1.752-1.132,3.3,3.3,0,0,0,.662-2.2,3.517,3.517,0,0,0-.491-1.9,3.1,3.1,0,0,0-1.5-1.218,6.27,6.27,0,0,0-2.521-.427c-.556,0-1.047,0-1.453.021a4.892,4.892,0,0,0-.876.021Z" transform="translate(-54 -59.5)" fill="#31a8ff"/><path d="M151.337,89.129a7.563,7.563,0,0,0-2.051-.726,11.264,11.264,0,0,0-2.393-.278,4.3,4.3,0,0,0-1.282.15,1.1,1.1,0,0,0-.662.427,1.132,1.132,0,0,0-.171.577.95.95,0,0,0,.214.556,2.411,2.411,0,0,0,.726.577c.491.256,1,.491,1.517.705a15.477,15.477,0,0,1,3.291,1.56,4.972,4.972,0,0,1,1.688,1.774,4.613,4.613,0,0,1,.491,2.2,4.972,4.972,0,0,1-.833,2.842,5.355,5.355,0,0,1-2.393,1.9,9.79,9.79,0,0,1-3.868.684,14.719,14.719,0,0,1-2.906-.278,8.619,8.619,0,0,1-2.179-.684.42.42,0,0,1-.235-.406V96.992a.232.232,0,0,1,.085-.192.163.163,0,0,1,.192.021,9.147,9.147,0,0,0,2.65,1.047,9.947,9.947,0,0,0,2.521.321,4.078,4.078,0,0,0,1.774-.3.993.993,0,0,0,.577-.9,1.132,1.132,0,0,0-.513-.855,9.062,9.062,0,0,0-2.094-1,13.074,13.074,0,0,1-3.034-1.538,5.532,5.532,0,0,1-1.624-1.816,4.585,4.585,0,0,1-.491-2.179,5.026,5.026,0,0,1,.726-2.585,5.267,5.267,0,0,1,2.244-1.966,8.286,8.286,0,0,1,3.782-.748,18.421,18.421,0,0,1,2.65.192,7.519,7.519,0,0,1,1.838.491.375.375,0,0,1,.214.192,1.073,1.073,0,0,1,.043.256v3.483a.263.263,0,0,1-.107.214A.569.569,0,0,1,151.337,89.129Z" transform="translate(-121.85 -79.001)" fill="#31a8ff"/></g></svg>