<svg xmlns="http://www.w3.org/2000/svg" width="163" height="163" viewBox="0 0 163 163"><g transform="translate(-686 -1017)"><circle cx="81.5" cy="81.5" r="81.5" transform="translate(686 1017)" fill="#acf2d8"/><g transform="translate(734.114 1048)"><rect width="54.92" height="58.484" transform="translate(5.56 18.807)" fill="#fff"/><g transform="translate(5.56 5.56)"><path d="M88.63,331.351a5.118,5.118,0,0,0,5.114,5.114h44.725a5.118,5.118,0,0,0,5.114-5.114v-6.632H88.647v6.632Z" transform="translate(-88.63 -247.412)" fill="#f05d7b"/><path d="M143.568,26.9a5.118,5.118,0,0,0-5.114-5.114H93.745A5.118,5.118,0,0,0,88.631,26.9v2.59h54.92V26.9Z" transform="translate(-88.631 -21.786)" fill="#f05d7b"/></g><rect width="43.801" height="47.364" transform="translate(11.136 24.4)" fill="#f05d7b"/><g transform="translate(0)"><path d="M122.226,0H77.518A10.692,10.692,0,0,0,66.844,10.674V89.515a10.691,10.691,0,0,0,10.674,10.674h44.725a10.691,10.691,0,0,0,10.674-10.674V10.674A10.705,10.705,0,0,0,122.226,0ZM72.4,56.108h5.18a2.788,2.788,0,0,0,0-5.576H72.4V45.583H82.83a2.78,2.78,0,1,0,0-5.56H72.4V18.807h54.92v58.5H72.4Zm49.823,38.505H77.518A5.118,5.118,0,0,1,72.4,89.5V82.867h54.92V89.5h.017A5.119,5.119,0,0,1,122.226,94.613Zm5.114-81.366H72.4v-2.59a5.118,5.118,0,0,1,5.114-5.114h44.725a5.118,5.118,0,0,1,5.114,5.114v2.59h-.016Z" transform="translate(-66.844)" fill="#022d5e"/><path d="M179.537,336.808h-8.991a2.788,2.788,0,1,0,0,5.576h8.991a2.788,2.788,0,1,0,0-5.576Z" transform="translate(-142.005 -250.856)" fill="#022d5e"/></g></g></g></svg>