<svg xmlns="http://www.w3.org/2000/svg" width="50.29" height="50" viewBox="0 0 50.29 50"><g transform="translate(0.156 -0.66)"><path d="M48.355,5.958,38,.972a3.131,3.131,0,0,0-3.572.607L.527,32.489a2.094,2.094,0,0,0,0,3.1L3.3,38.1a2.094,2.094,0,0,0,2.674.119L46.8,7.252a2.08,2.08,0,0,1,3.337,1.657v-.12A3.141,3.141,0,0,0,48.355,5.958Z" transform="translate(0 -0.002)" fill="#0065a9"/><g transform="translate(-0.156 12.674)"><path d="M48.355,94.545,38,99.531a3.131,3.131,0,0,1-3.572-.607L.527,68.015a2.094,2.094,0,0,1,0-3.1L3.3,62.4a2.094,2.094,0,0,1,2.674-.119L46.8,93.251a2.08,2.08,0,0,0,3.337-1.657v.12A3.141,3.141,0,0,1,48.355,94.545Z" transform="translate(0.156 -61.856)" fill="#007acc"/></g><g transform="translate(34.428 0.66)"><path d="M179.572,50.35A3.132,3.132,0,0,1,176,49.742a1.84,1.84,0,0,0,3.141-1.3V2.878A1.84,1.84,0,0,0,176,1.577a3.132,3.132,0,0,1,3.572-.608l10.354,4.979a3.141,3.141,0,0,1,1.78,2.831V42.54a3.141,3.141,0,0,1-1.78,2.831Z" transform="translate(-176 -0.66)" fill="#1f9cf0"/></g><g transform="translate(-0.156 0.66)" opacity="0.25"><path d="M35.483,50.446a3.129,3.129,0,0,0,2.493-.1l10.347-4.979A3.141,3.141,0,0,0,50.1,42.541V8.78a3.141,3.141,0,0,0-1.779-2.831L37.976.97a3.128,3.128,0,0,0-3.57.608L14.6,19.65,5.969,13.1a2.092,2.092,0,0,0-2.673.119L.529,15.736a2.1,2.1,0,0,0,0,3.1L8.009,25.66.527,32.487a2.1,2.1,0,0,0,0,3.1L3.3,38.1a2.092,2.092,0,0,0,2.673.119L14.6,31.67,34.406,49.742A3.125,3.125,0,0,0,35.483,50.446Zm2.062-36.2L22.515,25.66,37.546,37.069Z" transform="translate(0.156 -0.66)" fill="#fff" fill-rule="evenodd"/></g></g></svg>