<svg xmlns="http://www.w3.org/2000/svg" width="163" height="163" viewBox="0 0 163 163"><g transform="translate(-686 -1259)"><circle cx="81.5" cy="81.5" r="81.5" transform="translate(686 1259)" fill="#acf2d8"/><g transform="translate(717 1290)"><path d="M154.647,406.351a2.772,2.772,0,0,1-2.692-2.074L149.7,396H129.4l-2.234,8.277a2.813,2.813,0,0,1-2.692,2.074H112.546l-1.5,6.4h57.039l-1.5-6.4Z" transform="translate(-89.192 -317.023)" fill="#f05d7b"/><g transform="translate(5.604 5.604)"><path d="M29.55,329.163a2.8,2.8,0,0,0,2.792,2.792H95.9V330.14a2.792,2.792,0,1,1,5.584,0v1.815h5.126V330.14a2.792,2.792,0,1,1,5.584,0v1.815h4.049a2.8,2.8,0,0,0,2.792-2.792V323H29.55Z" transform="translate(-29.55 -264.186)" fill="#fff"/><path d="M119.058,30.892a2.8,2.8,0,0,0-2.792-2.792H32.342a2.8,2.8,0,0,0-2.792,2.792V81.31h89.528V30.892Z" transform="translate(-29.55 -28.1)" fill="#fff"/></g><path d="M130.285,56.1H63.154a5.638,5.638,0,0,0-5.086,3.271h10.57a2.792,2.792,0,0,1,0,5.584H57.55v6.2h4.707a2.792,2.792,0,1,1,0,5.584H57.55v26.964h78.339v-42A5.609,5.609,0,0,0,130.285,56.1Z" transform="translate(-46.362 -44.912)" fill="#f05d7b"/><path d="M264.907,126.554l2.493-4.428a2.723,2.723,0,0,1,4.408-.6l6.1,6.1,3.191-3.191-6.1-6.1a2.713,2.713,0,0,1,.6-4.408l4.428-2.493L256.65,103.2Z" transform="translate(-205.753 -82.618)" fill="#f2f4f9"/><g transform="translate(0)"><path d="M258.308,78.595l-34.7-12.245a2.821,2.821,0,0,0-3.57,3.57l12.245,34.7a2.8,2.8,0,0,0,5.086.439l3.69-6.581,5.485,5.485a2.745,2.745,0,0,0,3.949,0l7.14-7.14a2.781,2.781,0,0,0,0-3.949l-5.485-5.485,6.6-3.71A2.806,2.806,0,0,0,258.308,78.595Zm-12.126,5.724a2.713,2.713,0,0,0-.6,4.408l6.1,6.1L248.5,98.02l-6.1-6.1a2.733,2.733,0,0,0-4.408.6l-2.493,4.428-8.237-23.374,23.374,8.257Z" transform="translate(-176.339 -53.007)" fill="#022d5e"/><path d="M93.77,0H9.846a8.409,8.409,0,0,0-8.4,8.4V70.581a8.409,8.409,0,0,0,8.4,8.4H35.853l-1.276,4.747H22.57a2.816,2.816,0,0,0-2.732,2.154L17.046,97.864a2.8,2.8,0,0,0,2.732,3.43h64.1a2.8,2.8,0,0,0,2.732-3.43L83.818,85.878a2.8,2.8,0,0,0-2.732-2.154H69.079l-1.316-4.747H93.77a8.409,8.409,0,0,0,8.4-8.4V8.4A8.409,8.409,0,0,0,93.77,0ZM78.832,89.328l1.5,6.4H23.288l1.5-6.4H36.711A2.772,2.772,0,0,0,39.4,87.254l2.234-8.277H61.959l2.234,8.277a2.813,2.813,0,0,0,2.692,2.074Zm17.73-18.747a2.8,2.8,0,0,1-2.792,2.792H89.721V71.558a2.792,2.792,0,1,0-5.584,0v1.815H79.011V71.558a2.792,2.792,0,1,0-5.584,0v1.815H9.846a2.8,2.8,0,0,1-2.792-2.792V64.418H96.582v6.163Zm0-11.767H7.054V8.4A2.8,2.8,0,0,1,9.846,5.6H93.77A2.8,2.8,0,0,1,96.562,8.4V58.814Z" transform="translate(-1.45)" fill="#022d5e"/></g></g></g></svg>